<?xml version="1.0" encoding="UTF-8"?>
<svg xmlns="http://www.w3.org/2000/svg" viewBox="0 0 939 1024" width="939" height="1024">
  <!-- Icon: calendar2 -->
  <!-- Unicode: &#xe952; -->
  <g transform="scale(1, -1) translate(0, -960)">
    <path d="M199.097 908v-95.111h-47.555c-51.556 0-94.667-42.667-94.667-94.666v-663.558c0-52.002 43.111-95.113 94.667-95.113h664c51.556 0 94.666 43.11 94.666 95.113v663.558c0 52-43.11 94.666-94.666 94.666h-47.555v95.111h-94.667v-95.111h-379.555v95.111h-94.667zM151.542 576h664v-521.335h-664v521.335zM616.431 467.111l-156.445-156.445-85.333 85.333-66.667-66.667 152-151.555 222.667 222.667-66.222 66.667z" fill="currentColor"/>
  </g>
</svg>