<?xml version="1.0" encoding="UTF-8"?>
<svg xmlns="http://www.w3.org/2000/svg" viewBox="0 0 1024 1024" width="1024" height="1024">
  <!-- Icon: disc -->
  <!-- Unicode: &#xe91d; -->
  <g transform="scale(1, -1) translate(0, -960)">
    <path d="M241.323 960.085c-2.29-0.121-4.428-0.395-6.512-0.816l0.283 0.048h-78.251c-86.023-0.434-155.641-70.052-156.075-156.033v-710.356c0.338-86.156 70.090-155.907 156.213-156.245h49.867c2.065-0.354 4.444-0.557 6.869-0.557s4.804 0.202 7.12 0.591l-0.25-0.035h582.912c2.065-0.354 4.444-0.557 6.869-0.557s4.804 0.202 7.12 0.591l-0.25-0.035h50.005c86.156 0.338 155.907 70.090 156.245 156.213v596.683c-0.023 12.644-5.541 23.994-14.293 31.792l-0.043 0.037-256 227.328c-7.387 6.569-17.175 10.582-27.899 10.582-0.062 0-0.123 0-0.185 0h-21.41c-2.065 0.354-4.444 0.557-6.869 0.557s-4.804-0.202-7.12-0.591l0.25 0.035h-440.917c-2.293 0.458-4.944 0.736-7.653 0.768h-0.027zM156.843 873.984h42.667v-155.989c0.337-54.769 44.645-99.077 99.381-99.413h341.365c54.769 0.337 99.077 44.645 99.413 99.381v129.227l198.912-176.725v-577.536c0.001-0.153 0.002-0.333 0.002-0.514 0-38.928-31.557-70.485-70.485-70.485-0.181 0-0.361 0.001-0.542 0.002h-14.137v326.741c-0.337 54.769-44.645 99.077-99.381 99.413h-483.531c-54.622-0.528-98.738-44.764-99.072-99.381v-326.773h-14.592c-0.077 0-0.167 0-0.258 0-38.928 0-70.485 31.557-70.485 70.485 0 0.18 0.001 0.36 0.002 0.54v-0.028 710.315c0 0.076 0 0.166 0 0.256 0 38.928 31.557 70.485 70.485 70.485 0.090 0 0.18 0 0.27-0.001h-0.014zM284.843 873.984h369.237v-155.989c0.012-0.209 0.018-0.454 0.018-0.701 0-7.446-6.036-13.483-13.483-13.483-0.247 0-0.492 0.007-0.735 0.020l0.034-0.001h-341.333c-0.209-0.012-0.454-0.018-0.701-0.018-7.446 0-13.483 6.036-13.483 13.483 0 0.247 0.007 0.492 0.020 0.735l-0.001-0.034zM270.507 362.837h482.987c0.209 0.012 0.454 0.018 0.701 0.018 7.446 0 13.483-6.036 13.483-13.483 0-0.247-0.007-0.492-0.020-0.735l0.001 0.034v-326.741h-511.403v326.741c-0.012 0.211-0.018 0.457-0.018 0.706 0 7.446 6.036 13.483 13.483 13.483 0.277 0 0.551-0.008 0.824-0.025l-0.037 0.002z" fill="currentColor"/>
  </g>
</svg>