<?xml version="1.0" encoding="UTF-8"?>
<svg xmlns="http://www.w3.org/2000/svg" viewBox="0 0 1024 1024" width="1024" height="1024">
  <!-- Icon: mypassword2 -->
  <!-- Unicode: &#xe963; -->
  <g transform="scale(1, -1) translate(0, -960)">
    <path d="M0 448c0 0.030 0 0.065 0 0.1 0 141.385 114.615 256 256 256 94.297 0 176.686-50.984 221.106-126.89l0.654-1.21h418.24c0.017 0 0.037 0 0.057 0 8.822 0 16.811-3.57 22.599-9.345l95.999-95.999c5.808-5.794 9.401-13.805 9.401-22.656s-3.593-16.862-9.401-22.655l-96.001-96.001c-5.794-5.808-13.805-9.401-22.656-9.401s-16.862 3.593-22.655 9.401l-0.001 0.001-41.344 41.408-41.344-41.408c-5.794-5.808-13.805-9.401-22.656-9.401s-16.862 3.593-22.655 9.401l-0.001 0.001-41.344 41.408-41.344-41.408c-5.794-5.808-13.805-9.401-22.656-9.401s-16.862 3.593-22.655 9.401l-0.001 0.001-41.344 41.408-41.344-41.408c-5.788-5.774-13.776-9.344-22.599-9.344-0.020 0-0.040 0-0.060 0h-34.237c-45.074-77.116-127.463-128.1-221.76-128.1-141.385 0-256 114.615-256 256 0 0.035 0 0.070 0 0.105v-0.005zM256 640c-106.007-0.041-191.927-85.987-191.927-192 0-106.039 85.961-192 192-192 76.157 0 141.958 44.34 172.996 108.613l0.5 1.147c5.263 10.866 16.202 18.229 28.863 18.24h40.321l54.592 54.656c5.794 5.808 13.805 9.401 22.656 9.401s16.862-3.593 22.655-9.401l0.001-0.001 41.344-41.408 41.344 41.408c5.794 5.808 13.805 9.401 22.656 9.401s16.862-3.593 22.655-9.401l0.001-0.001 41.344-41.408 41.344 41.408c5.794 5.808 13.805 9.401 22.656 9.401s16.862-3.593 22.655-9.401l0.001-0.001 41.344-41.408 50.752 50.752-64 64h-424.32c-12.662 0.011-23.601 7.374-28.781 18.050l-0.083 0.19c-31.537 65.42-97.338 109.76-173.495 109.76-0.026 0-0.051 0-0.077 0h0.004zM256 448c0-35.346-28.654-64-64-64s-64 28.654-64 64v0c0 35.346 28.654 64 64 64s64-28.654 64-64v0z" fill="currentColor"/>
  </g>
</svg>