<?xml version="1.0" encoding="UTF-8"?>
<svg xmlns="http://www.w3.org/2000/svg" viewBox="0 0 1024 1024" width="1024" height="1024">
  <!-- Icon: program2 -->
  <!-- Unicode: &#xe964; -->
  <g transform="scale(1, -1) translate(0, -960)">
    <path d="M512 0c-247.424 0-448 200.576-448 448s200.576 448 448 448v0c247.424 0 448-200.576 448-448s-200.576-448-448-448v0zM512-64c282.77 0 512 229.23 512 512s-229.23 512-512 512v0c-282.77 0-512-229.23-512-512s229.23-512 512-512v0zM571.52 538.368l-146.56-18.368-5.248-24.32 28.8-5.312c18.816-4.48 22.528-11.264 18.432-30.016l-47.232-221.952c-12.416-57.408 6.72-84.416 51.712-84.416 34.88 0 75.392 16.128 93.76 38.272l5.632 26.624c-12.8-11.264-31.488-15.744-43.904-15.744-17.6 0-24 12.352-19.456 34.112l64.064 301.12zM576 672c0-35.346-28.654-64-64-64s-64 28.654-64 64v0c0 35.346 28.654 64 64 64s64-28.654 64-64v0z" fill="currentColor"/>
  </g>
</svg>