<?xml version="1.0" encoding="UTF-8"?>
<svg xmlns="http://www.w3.org/2000/svg" viewBox="0 0 1024 1024" width="1024" height="1024">
  <!-- Icon: search -->
  <!-- Unicode: &#xe98e; -->
  <g transform="scale(1, -1) translate(0, -960)">
    <path d="M365.69 935.571c-190.095 0-341.333-151.238-341.333-341.333s151.238-341.334 341.333-341.334c83.81 0 160.381 29.714 219.429 79.239l24.381-24.381v-39.619l307.806-307.809 82.286 82.286-307.806 307.809h-42.667l-22.857 22.857c50.286 59.429 80.762 136.381 80.762 220.952 0 190.095-151.238 341.333-341.334 341.333zM365.69 838.047c136.381 0 243.81-107.429 243.81-243.809s-107.429-243.809-243.81-243.809c-136.381 0-243.809 107.428-243.809 243.809s107.429 243.809 243.809 243.809z" fill="currentColor"/>
  </g>
</svg>